<?xml version="1.0" standalone="no"?>
<!DOCTYPE svg PUBLIC "-//W3C//DTD SVG 20010904//EN"
 "http://www.w3.org/TR/2001/REC-SVG-20010904/DTD/svg10.dtd">
<svg version="1.0" xmlns="http://www.w3.org/2000/svg"
 width="260.000000pt" height="260.000000pt" viewBox="0 0 260.000000 260.000000"
 preserveAspectRatio="xMidYMid meet">
<metadata>
Created by potrace 1.14, written by Peter Selinger 2001-2017
</metadata>
<g transform="translate(0.000000,260.000000) scale(0.100000,-0.100000)"
fill="#000000" stroke="none">
<path d="M1110 2386 c-288 -137 -463 -246 -455 -286 2 -12 0 -18 -6 -15 -5 4
-7 11 -4 16 4 5 1 9 -4 9 -14 0 -14 -17 -1 -25 8 -5 7 -12 -2 -23 -7 -10 5 -2
27 17 40 35 153 111 164 111 4 0 6 -35 6 -77 0 -93 13 -122 93 -206 l56 -58
-3 -92 c-2 -83 15 -182 43 -257 4 -11 -16 -28 -66 -60 -39 -25 -98 -71 -131
-104 l-60 -59 -31 18 c-17 10 -49 32 -71 49 -22 17 -34 23 -27 14 9 -11 10
-18 2 -23 -16 -10 -5 -22 57 -61 42 -27 53 -39 48 -52 -32 -77 -29 -153 9
-237 40 -88 124 -155 315 -256 98 -52 176 -117 196 -167 12 -26 15 -83 15
-248 l0 -214 25 0 25 0 0 233 0 234 30 59 c40 81 131 169 346 335 224 172 327
276 380 383 34 70 39 88 42 171 16 367 -201 643 -705 899 -61 31 -117 56 -124
55 -8 0 -93 -38 -189 -83z m263 3 c34 -18 98 -52 142 -78 l80 -46 -105 -6
c-163 -10 -269 -55 -370 -159 -48 -49 -93 -122 -114 -184 -6 -17 -11 -15 -47
20 -22 21 -50 57 -62 79 -27 52 -28 135 -2 189 20 41 10 35 355 198 48 23 52
22 123 -13z m238 -183 c76 -17 134 -43 166 -78 34 -36 56 -96 48 -134 -13 -74
-142 -177 -351 -282 l-101 -51 -79 46 c-173 100 -254 155 -254 172 0 35 62
141 113 193 62 62 156 113 247 132 84 19 130 19 211 2z m383 -319 c46 -78 74
-169 85 -273 22 -217 -49 -337 -331 -561 -36 -29 -68 -53 -71 -53 -3 0 9 25
28 55 111 185 41 365 -201 522 -40 27 -74 51 -74 54 0 4 46 30 102 59 242 125
337 214 338 317 l1 38 43 -48 c23 -26 59 -76 80 -110z m-902 -111 c29 -18 93
-57 142 -86 l90 -53 -125 -63 c-68 -34 -128 -58 -133 -54 -28 27 -62 290 -38
290 7 0 35 -15 64 -34z m366 -223 c101 -67 200 -162 228 -218 13 -28 19 -61
19 -110 0 -107 -23 -144 -193 -315 l-144 -145 6 43 c8 52 -8 155 -35 226 -11
30 -45 94 -76 143 -102 160 -173 277 -173 285 0 6 263 145 279 147 2 1 42 -25
89 -56z m-382 -160 c15 -27 64 -104 108 -173 44 -68 93 -156 110 -195 28 -63
31 -80 31 -175 0 -58 -5 -113 -11 -123 -8 -15 -13 -9 -28 40 -28 90 -82 185
-143 253 -50 55 -185 153 -299 216 l-38 21 50 49 c45 45 169 134 186 134 4 0
19 -21 34 -47z m-167 -245 c144 -87 235 -177 289 -288 35 -72 78 -198 69 -206
-1 -1 -27 17 -58 40 -30 23 -93 61 -140 85 -228 118 -300 196 -302 331 -1 62
9 100 26 100 6 0 59 -28 116 -62z"/>
</g>
</svg>
