<?xml version="1.0" standalone="no"?>
<!DOCTYPE svg PUBLIC "-//W3C//DTD SVG 20010904//EN"
 "http://www.w3.org/TR/2001/REC-SVG-20010904/DTD/svg10.dtd">
<svg version="1.0" xmlns="http://www.w3.org/2000/svg"
 width="260.000000pt" height="260.000000pt" viewBox="0 0 260.000000 260.000000"
 preserveAspectRatio="xMidYMid meet">
<metadata>
Created by potrace 1.14, written by Peter Selinger 2001-2017
</metadata>
<g transform="translate(0.000000,260.000000) scale(0.100000,-0.100000)"
fill="#000000" stroke="none">
<path d="M1250 2452 c-19 -9 -100 -48 -180 -85 -80 -38 -148 -73 -151 -79 -3
-5 -8 -8 -11 -6 -5 4 -161 -86 -179 -105 -8 -7 -18 -15 -24 -16 -11 -3 -145
-113 -145 -119 0 -2 5 0 12 4 6 4 -6 -11 -28 -32 -39 -39 -101 -151 -90 -161
3 -4 1 -12 -6 -20 -26 -31 -26 -226 -1 -267 4 -6 8 -17 10 -25 4 -28 26 -71
36 -71 6 0 8 -3 4 -6 -6 -7 -4 -11 49 -71 20 -24 41 -40 47 -36 5 3 8 2 5 -3
-3 -5 0 -15 8 -22 8 -7 14 -10 14 -7 0 4 6 0 14 -8 8 -7 37 -28 64 -46 l49
-31 -13 -40 c-20 -59 -10 -162 22 -224 29 -56 58 -88 70 -78 4 4 4 2 1 -4 -6
-10 51 -64 68 -64 3 0 15 -9 27 -20 12 -10 25 -17 30 -14 4 3 8 1 8 -4 0 -5 8
-12 18 -15 24 -8 156 -81 195 -109 40 -28 47 -35 77 -78 24 -34 25 -40 27
-230 1 -107 2 -211 3 -232 0 -35 16 -45 37 -24 4 4 8 103 9 219 1 237 7 270
61 348 52 75 115 133 303 277 275 209 399 350 430 487 34 147 -3 338 -95 494
-58 98 -125 167 -301 308 -69 55 -393 233 -422 232 -10 0 -33 -8 -52 -17z
m123 -63 c73 -37 217 -119 217 -124 0 -2 -32 -4 -71 -4 -39 0 -97 -5 -128 -11
-72 -15 -204 -77 -195 -92 5 -7 2 -8 -5 -4 -16 10 -125 -100 -115 -116 4 -7 3
-8 -4 -4 -7 4 -23 -20 -44 -64 l-33 -70 -42 42 c-24 23 -43 46 -43 52 0 5 -7
18 -17 28 -23 26 -22 124 2 177 16 36 28 46 104 83 47 23 89 47 93 53 4 5 8 7
8 3 0 -4 42 13 93 37 50 24 98 44 105 45 7 0 41 -14 75 -31z m279 -193 c32 -9
59 -15 61 -14 2 2 11 -5 21 -15 10 -9 22 -14 28 -11 6 4 8 2 5 -3 -4 -6 0 -17
9 -24 37 -31 55 -90 46 -155 -7 -43 -117 -138 -242 -206 -41 -23 -78 -46 -82
-52 -4 -6 -8 -8 -8 -3 0 4 -26 -6 -59 -22 l-58 -30 -104 61 c-57 33 -110 61
-116 61 -7 0 -11 3 -8 5 2 3 -20 20 -50 39 -50 32 -55 37 -52 68 1 18 4 31 6
29 4 -4 16 20 32 61 5 13 36 50 81 97 112 113 325 163 490 114z m-817 -84 c0
-67 4 -83 29 -126 16 -27 50 -70 76 -95 47 -45 47 -47 41 -96 -8 -66 4 -176
27 -250 l19 -60 -41 -24 c-22 -14 -47 -31 -54 -38 -7 -7 -17 -13 -21 -13 -5 0
-39 -29 -76 -65 l-67 -65 -37 22 c-96 58 -175 133 -208 198 -10 19 -20 37 -23
40 -14 14 -27 116 -25 192 5 122 59 226 174 328 57 51 166 129 181 130 3 0 5
-35 5 -78z m1059 -84 c27 -29 95 -126 116 -167 74 -147 95 -331 52 -453 -26
-73 -71 -138 -152 -218 -72 -72 -217 -186 -226 -178 -3 3 7 23 21 43 77 114
64 277 -30 370 -16 16 -29 31 -27 33 5 5 -89 82 -151 124 -34 22 -64 42 -66
44 -7 6 28 34 44 34 9 0 14 4 11 9 -3 5 0 8 7 7 16 -1 174 84 203 110 12 12
25 20 27 17 9 -8 114 100 131 135 10 18 18 49 19 68 2 38 3 39 21 22z m-816
-238 c7 0 12 -3 12 -8 0 -4 52 -39 116 -77 l116 -69 -123 -62 c-68 -34 -127
-60 -131 -58 -25 15 -55 215 -42 277 5 26 7 27 23 13 10 -9 23 -16 29 -16z
m360 -222 c81 -51 100 -67 172 -138 68 -67 93 -116 98 -195 7 -102 -22 -150
-192 -322 l-145 -146 3 55 c8 124 -25 220 -136 395 -45 70 -84 130 -87 133 -8
7 -61 106 -61 114 0 4 264 143 278 145 1 1 33 -18 70 -41z m-367 -168 c13 -22
27 -40 31 -40 5 0 7 -4 4 -8 -3 -5 22 -49 55 -98 135 -199 170 -288 166 -416
-2 -46 -8 -92 -15 -103 -12 -22 -10 -24 -32 50 -48 160 -182 308 -370 411 -19
10 -38 24 -42 29 -5 7 -8 7 -8 0 0 -6 -3 -6 -8 1 -4 6 -16 16 -27 21 -18 11
-16 15 33 62 29 28 57 51 63 51 6 0 7 6 3 13 -4 6 -4 9 0 6 4 -4 31 8 59 27
28 19 55 34 59 34 4 0 17 -18 29 -40z m-243 -206 c12 -8 22 -12 22 -9 0 3 6 1
13 -5 20 -18 147 -98 147 -94 0 3 34 -29 75 -71 41 -42 75 -80 75 -85 0 -5 6
-15 13 -22 20 -21 65 -128 81 -190 8 -32 13 -58 11 -58 -2 0 -39 24 -82 53
-43 28 -99 61 -123 72 -25 11 -47 22 -50 25 -3 3 -21 14 -40 24 -19 10 -51 31
-70 45 -19 14 -39 25 -43 23 -5 -1 -6 2 -3 7 4 5 0 13 -7 18 -62 38 -97 184
-68 281 3 7 30 0 49 -14z"/>
</g>
</svg>
